<svg width="32" height="32" viewBox="0 0 32 32" fill="none" xmlns="http://www.w3.org/2000/svg">
<path d="M16 7.2C17.0419 7.2 18.0412 7.62143 18.7779 8.37157C19.5147 9.12172 19.9286 10.1391 19.9286 11.2C19.9286 11.7253 19.827 12.2454 19.6295 12.7307C19.4321 13.216 19.1427 13.657 18.7779 14.0284C18.4131 14.3999 17.98 14.6945 17.5034 14.8955C17.0268 15.0965 16.5159 15.2 16 15.2C14.9581 15.2 13.9588 14.7786 13.2221 14.0284C12.4853 13.2783 12.0714 12.2609 12.0714 11.2C12.0714 10.1391 12.4853 9.12172 13.2221 8.37157C13.9588 7.62143 14.9581 7.2 16 7.2ZM16 0C18.9174 0 21.7153 1.18 23.7782 3.2804C25.8411 5.38081 27 8.22958 27 11.2C27 19.6 16 32 16 32C16 32 5 19.6 5 11.2C5 8.22958 6.15893 5.38081 8.22183 3.2804C10.2847 1.18 13.0826 0 16 0ZM16 3.2C13.9162 3.2 11.9177 4.04285 10.4442 5.54315C8.97066 7.04344 8.14286 9.07827 8.14286 11.2C8.14286 12.8 8.14286 16 16 26.736C23.8571 16 23.8571 12.8 23.8571 11.2C23.8571 9.07827 23.0293 7.04344 21.5558 5.54315C20.0823 4.04285 18.0838 3.2 16 3.2Z" fill="#D0D1D2"/>
</svg>
