<svg width="29" height="32" viewBox="0 0 29 32" fill="none" xmlns="http://www.w3.org/2000/svg">
<mask id="mask0_5732_27454" style="mask-type:alpha" maskUnits="userSpaceOnUse" x="0" y="0" width="29" height="32">
<path d="M26.086 31.9919H2.53604C1.28105 31.9919 0.263672 30.9745 0.263672 29.7195V2.45108C0.263672 1.19609 1.28105 0.178711 2.53604 0.178711H17.8229L28.3584 10.7142V29.7195C28.3584 30.9745 27.341 31.9919 26.086 31.9919Z" fill="url(#paint0_linear_5732_27454)"/>
</mask>
<g mask="url(#mask0_5732_27454)">
<path d="M26.086 31.9919H2.53604C1.28105 31.9919 0.263672 30.9745 0.263672 29.7195V2.45108C0.263672 1.19609 1.28105 0.178711 2.53604 0.178711H17.8229L28.3584 10.7142V29.7195C28.3584 30.9745 27.341 31.9919 26.086 31.9919Z" fill="url(#paint1_linear_5732_27454)"/>
<mask id="path-3-outside-1_5732_27454" maskUnits="userSpaceOnUse" x="5.53125" y="17.1553" width="18" height="7" fill="black">
<rect fill="white" x="5.53125" y="17.1553" width="18" height="7"/>
<path d="M6.68995 23.1961C6.58659 23.1961 6.49955 23.1607 6.42884 23.09C6.35812 23.0193 6.32276 22.9322 6.32276 22.8289V17.835C6.32276 17.7317 6.35812 17.6446 6.42884 17.5739C6.49955 17.4978 6.58659 17.4597 6.68995 17.4597H8.5504C9.06719 17.4597 9.48879 17.5467 9.81518 17.7208C10.1416 17.8949 10.3755 18.1179 10.5169 18.3899C10.6584 18.6619 10.7291 18.9557 10.7291 19.2712C10.7291 19.5867 10.6584 19.8804 10.5169 20.1524C10.3755 20.4244 10.1416 20.6475 9.81518 20.8216C9.48879 20.9956 9.06719 21.0827 8.5504 21.0827H7.06531V22.8289C7.06531 22.9322 7.02723 23.0193 6.95107 23.09C6.88035 23.1607 6.79331 23.1961 6.68995 23.1961ZM8.47696 20.3809C9.03183 20.3809 9.42079 20.2748 9.64382 20.0627C9.8723 19.8505 9.98654 19.5867 9.98654 19.2712C9.98654 18.9557 9.8723 18.6918 9.64382 18.4797C9.42079 18.2675 9.03183 18.1614 8.47696 18.1614H7.06531V20.3809H8.47696ZM12.7436 23.1553C12.6402 23.1553 12.5532 23.1199 12.4824 23.0492C12.4117 22.9785 12.3764 22.8914 12.3764 22.7881V17.835C12.3764 17.7317 12.4117 17.6446 12.4824 17.5739C12.5532 17.4978 12.6402 17.4597 12.7436 17.4597H14.3837C15.0038 17.4597 15.5288 17.5984 15.9585 17.8758C16.3937 18.1478 16.7201 18.5014 16.9377 18.9366C17.1553 19.3718 17.2641 19.8288 17.2641 20.3075C17.2641 20.7862 17.1553 21.2431 16.9377 21.6783C16.7201 22.1135 16.3937 22.4698 15.9585 22.7473C15.5288 23.0193 15.0038 23.1553 14.3837 23.1553H12.7436ZM14.2939 22.4617C14.74 22.4617 15.1317 22.3719 15.4689 22.1924C15.8062 22.0075 16.0673 21.7545 16.2523 21.4335C16.4373 21.1071 16.5297 20.7318 16.5297 20.3075C16.5297 19.8832 16.4373 19.5105 16.2523 19.1896C16.0673 18.8632 15.8062 18.6102 15.4689 18.4307C15.1317 18.2458 14.74 18.1533 14.2939 18.1533H13.1189V22.4617H14.2939ZM19.4426 23.1961C19.3393 23.1961 19.2522 23.1607 19.1815 23.09C19.1108 23.0193 19.0754 22.9322 19.0754 22.8289V17.835C19.0754 17.7317 19.1108 17.6446 19.1815 17.5739C19.2522 17.4978 19.3393 17.4597 19.4426 17.4597H22.6168C22.7147 17.4597 22.7963 17.495 22.8616 17.5658C22.9323 17.631 22.9677 17.7126 22.9677 17.8106C22.9677 17.9085 22.9323 17.9901 22.8616 18.0554C22.7963 18.1206 22.7147 18.1533 22.6168 18.1533H19.818V19.9566H22.3312C22.4291 19.9566 22.5107 19.992 22.576 20.0627C22.6467 20.128 22.6821 20.2096 22.6821 20.3075C22.6821 20.4054 22.6467 20.487 22.576 20.5523C22.5107 20.6176 22.4291 20.6502 22.3312 20.6502H19.818V22.8289C19.818 22.9322 19.7799 23.0193 19.7037 23.09C19.633 23.1607 19.546 23.1961 19.4426 23.1961Z"/>
</mask>
<path d="M6.68995 23.1961C6.58659 23.1961 6.49955 23.1607 6.42884 23.09C6.35812 23.0193 6.32276 22.9322 6.32276 22.8289V17.835C6.32276 17.7317 6.35812 17.6446 6.42884 17.5739C6.49955 17.4978 6.58659 17.4597 6.68995 17.4597H8.5504C9.06719 17.4597 9.48879 17.5467 9.81518 17.7208C10.1416 17.8949 10.3755 18.1179 10.5169 18.3899C10.6584 18.6619 10.7291 18.9557 10.7291 19.2712C10.7291 19.5867 10.6584 19.8804 10.5169 20.1524C10.3755 20.4244 10.1416 20.6475 9.81518 20.8216C9.48879 20.9956 9.06719 21.0827 8.5504 21.0827H7.06531V22.8289C7.06531 22.9322 7.02723 23.0193 6.95107 23.09C6.88035 23.1607 6.79331 23.1961 6.68995 23.1961ZM8.47696 20.3809C9.03183 20.3809 9.42079 20.2748 9.64382 20.0627C9.8723 19.8505 9.98654 19.5867 9.98654 19.2712C9.98654 18.9557 9.8723 18.6918 9.64382 18.4797C9.42079 18.2675 9.03183 18.1614 8.47696 18.1614H7.06531V20.3809H8.47696ZM12.7436 23.1553C12.6402 23.1553 12.5532 23.1199 12.4824 23.0492C12.4117 22.9785 12.3764 22.8914 12.3764 22.7881V17.835C12.3764 17.7317 12.4117 17.6446 12.4824 17.5739C12.5532 17.4978 12.6402 17.4597 12.7436 17.4597H14.3837C15.0038 17.4597 15.5288 17.5984 15.9585 17.8758C16.3937 18.1478 16.7201 18.5014 16.9377 18.9366C17.1553 19.3718 17.2641 19.8288 17.2641 20.3075C17.2641 20.7862 17.1553 21.2431 16.9377 21.6783C16.7201 22.1135 16.3937 22.4698 15.9585 22.7473C15.5288 23.0193 15.0038 23.1553 14.3837 23.1553H12.7436ZM14.2939 22.4617C14.74 22.4617 15.1317 22.3719 15.4689 22.1924C15.8062 22.0075 16.0673 21.7545 16.2523 21.4335C16.4373 21.1071 16.5297 20.7318 16.5297 20.3075C16.5297 19.8832 16.4373 19.5105 16.2523 19.1896C16.0673 18.8632 15.8062 18.6102 15.4689 18.4307C15.1317 18.2458 14.74 18.1533 14.2939 18.1533H13.1189V22.4617H14.2939ZM19.4426 23.1961C19.3393 23.1961 19.2522 23.1607 19.1815 23.09C19.1108 23.0193 19.0754 22.9322 19.0754 22.8289V17.835C19.0754 17.7317 19.1108 17.6446 19.1815 17.5739C19.2522 17.4978 19.3393 17.4597 19.4426 17.4597H22.6168C22.7147 17.4597 22.7963 17.495 22.8616 17.5658C22.9323 17.631 22.9677 17.7126 22.9677 17.8106C22.9677 17.9085 22.9323 17.9901 22.8616 18.0554C22.7963 18.1206 22.7147 18.1533 22.6168 18.1533H19.818V19.9566H22.3312C22.4291 19.9566 22.5107 19.992 22.576 20.0627C22.6467 20.128 22.6821 20.2096 22.6821 20.3075C22.6821 20.4054 22.6467 20.487 22.576 20.5523C22.5107 20.6176 22.4291 20.6502 22.3312 20.6502H19.818V22.8289C19.818 22.9322 19.7799 23.0193 19.7037 23.09C19.633 23.1607 19.546 23.1961 19.4426 23.1961Z" fill="white"/>
<path d="M6.42884 23.09L6.57491 22.9439L6.42884 23.09ZM6.42884 17.5739L6.57501 17.7201L6.58022 17.7145L6.42884 17.5739ZM9.81518 17.7208L9.91239 17.5385L9.81518 17.7208ZM10.5169 18.3899L10.3336 18.4852L10.5169 18.3899ZM10.5169 20.1524L10.3336 20.0571L10.5169 20.1524ZM9.81518 20.8216L9.91239 21.0038L9.81518 20.8216ZM7.06531 21.0827V20.8761H6.85873V21.0827H7.06531ZM6.95107 23.09L6.8104 22.9385L6.80499 22.9439L6.95107 23.09ZM9.64382 20.0627L9.50325 19.9113L9.50145 19.913L9.64382 20.0627ZM9.64382 18.4797L9.50144 18.6294L9.50326 18.631L9.64382 18.4797ZM7.06531 18.1614V17.9549H6.85873V18.1614H7.06531ZM7.06531 20.3809H6.85873V20.5875H7.06531V20.3809ZM6.68995 22.9895C6.63933 22.9895 6.60546 22.9745 6.57491 22.9439L6.28276 23.2361C6.39365 23.347 6.53385 23.4027 6.68995 23.4027V22.9895ZM6.57491 22.9439C6.54436 22.9134 6.52934 22.8795 6.52934 22.8289H6.11618C6.11618 22.985 6.17188 23.1252 6.28276 23.2361L6.57491 22.9439ZM6.52934 22.8289V17.835H6.11618V22.8289H6.52934ZM6.52934 17.835C6.52934 17.7844 6.54436 17.7505 6.57491 17.72L6.28276 17.4279C6.17188 17.5387 6.11618 17.6789 6.11618 17.835H6.52934ZM6.58022 17.7145C6.61209 17.6802 6.6444 17.6663 6.68995 17.6663V17.2531C6.52879 17.2531 6.38702 17.3154 6.27746 17.4334L6.58022 17.7145ZM6.68995 17.6663H8.5504V17.2531H6.68995V17.6663ZM8.5504 17.6663C9.046 17.6663 9.431 17.75 9.71797 17.9031L9.91239 17.5385C9.54657 17.3434 9.08838 17.2531 8.5504 17.2531V17.6663ZM9.71797 17.9031C10.0153 18.0616 10.2151 18.2573 10.3336 18.4852L10.7002 18.2946C10.5358 17.9785 10.2679 17.7281 9.91239 17.5385L9.71797 17.9031ZM10.3336 18.4852C10.4593 18.7269 10.5225 18.9878 10.5225 19.2712H10.9357C10.9357 18.9235 10.8574 18.5969 10.7002 18.2946L10.3336 18.4852ZM10.5225 19.2712C10.5225 19.5545 10.4593 19.8155 10.3336 20.0571L10.7002 20.2477C10.8574 19.9454 10.9357 19.6189 10.9357 19.2712H10.5225ZM10.3336 20.0571C10.2151 20.285 10.0153 20.4807 9.71797 20.6393L9.91239 21.0038C10.2679 20.8142 10.5358 20.5638 10.7002 20.2477L10.3336 20.0571ZM9.71797 20.6393C9.431 20.7923 9.046 20.8761 8.5504 20.8761V21.2892C9.08838 21.2892 9.54657 21.1989 9.91239 21.0038L9.71797 20.6393ZM8.5504 20.8761H7.06531V21.2892H8.5504V20.8761ZM6.85873 21.0827V22.8289H7.27188V21.0827H6.85873ZM6.85873 22.8289C6.85873 22.8744 6.84483 22.9067 6.8105 22.9386L7.09163 23.2414C7.20962 23.1318 7.27188 22.99 7.27188 22.8289H6.85873ZM6.80499 22.9439C6.77444 22.9745 6.74057 22.9895 6.68995 22.9895V23.4027C6.84605 23.4027 6.98626 23.347 7.09714 23.2361L6.80499 22.9439ZM8.47696 20.5875C9.04629 20.5875 9.50381 20.481 9.7862 20.2124L9.50145 19.913C9.33776 20.0687 9.01737 20.1743 8.47696 20.1743V20.5875ZM9.78439 20.2141C10.0555 19.9623 10.1931 19.6434 10.1931 19.2712H9.77996C9.77996 19.53 9.68907 19.7388 9.50326 19.9113L9.78439 20.2141ZM10.1931 19.2712C10.1931 18.899 10.0555 18.5801 9.78439 18.3283L9.50326 18.631C9.68907 18.8036 9.77996 19.0123 9.77996 19.2712H10.1931ZM9.7862 18.33C9.50381 18.0614 9.04629 17.9549 8.47696 17.9549V18.368C9.01737 18.368 9.33776 18.4736 9.50145 18.6293L9.7862 18.33ZM8.47696 17.9549H7.06531V18.368H8.47696V17.9549ZM6.85873 18.1614V20.3809H7.27188V18.1614H6.85873ZM7.06531 20.5875H8.47696V20.1743H7.06531V20.5875ZM12.4824 23.0492L12.6285 22.9031L12.4824 23.0492ZM12.4824 17.5739L12.6286 17.7201L12.6338 17.7145L12.4824 17.5739ZM15.9585 17.8758L15.8465 18.0494L15.8491 18.051L15.9585 17.8758ZM16.9377 18.9366L16.753 19.029L16.9377 18.9366ZM16.9377 21.6783L16.753 21.586L16.9377 21.6783ZM15.9585 22.7473L16.069 22.9218L16.0696 22.9215L15.9585 22.7473ZM15.4689 22.1924L15.566 22.3748L15.5683 22.3735L15.4689 22.1924ZM16.2523 21.4335L16.4313 21.5367L16.432 21.5354L16.2523 21.4335ZM16.2523 19.1896L16.0726 19.2914L16.0733 19.2927L16.2523 19.1896ZM15.4689 18.4307L15.3696 18.6119L15.3719 18.6131L15.4689 18.4307ZM13.1189 18.1533V17.9467H12.9123V18.1533H13.1189ZM13.1189 22.4617H12.9123V22.6683H13.1189V22.4617ZM12.7436 22.9487C12.6929 22.9487 12.6591 22.9337 12.6285 22.9031L12.3364 23.1953C12.4472 23.3062 12.5875 23.3619 12.7436 23.3619V22.9487ZM12.6285 22.9031C12.598 22.8726 12.5829 22.8387 12.5829 22.7881H12.1698C12.1698 22.9442 12.2255 23.0844 12.3364 23.1953L12.6285 22.9031ZM12.5829 22.7881V17.835H12.1698V22.7881H12.5829ZM12.5829 17.835C12.5829 17.7844 12.598 17.7505 12.6285 17.72L12.3364 17.4279C12.2255 17.5387 12.1698 17.6789 12.1698 17.835H12.5829ZM12.6338 17.7145C12.6657 17.6802 12.698 17.6663 12.7436 17.6663V17.2531C12.5824 17.2531 12.4406 17.3154 12.3311 17.4334L12.6338 17.7145ZM12.7436 17.6663H14.3837V17.2531H12.7436V17.6663ZM14.3837 17.6663C14.9726 17.6663 15.4566 17.7977 15.8465 18.0494L16.0706 17.7023C15.6009 17.3991 15.0351 17.2531 14.3837 17.2531V17.6663ZM15.8491 18.051C16.2539 18.304 16.5533 18.6297 16.753 19.029L17.1225 18.8442C16.887 18.3732 16.5336 17.9916 16.068 17.7007L15.8491 18.051ZM16.753 19.029C16.9565 19.436 17.0575 19.8614 17.0575 20.3075H17.4707C17.4707 19.7962 17.3542 19.3076 17.1225 18.8442L16.753 19.029ZM17.0575 20.3075C17.0575 20.7536 16.9565 21.179 16.753 21.586L17.1225 21.7707C17.3542 21.3073 17.4707 20.8188 17.4707 20.3075H17.0575ZM16.753 21.586C16.5531 21.9857 16.2532 22.3145 15.8475 22.5731L16.0696 22.9215C16.5343 22.6252 16.8872 22.2414 17.1225 21.7707L16.753 21.586ZM15.8481 22.5727C15.458 22.8196 14.9733 22.9487 14.3837 22.9487V23.3619C15.0343 23.3619 15.5996 23.2189 16.069 22.9218L15.8481 22.5727ZM14.3837 22.9487H12.7436V23.3619H14.3837V22.9487ZM14.2939 22.6683C14.7682 22.6683 15.1942 22.5727 15.566 22.3748L15.3719 22.0101C15.0691 22.1712 14.7118 22.2551 14.2939 22.2551V22.6683ZM15.5683 22.3735C15.9374 22.1711 16.2267 21.8917 16.4313 21.5367L16.0733 21.3304C15.908 21.6173 15.675 21.8438 15.3696 22.0113L15.5683 22.3735ZM16.432 21.5354C16.6368 21.174 16.7363 20.7627 16.7363 20.3075H16.3232C16.3232 20.7009 16.2377 21.0403 16.0726 21.3317L16.432 21.5354ZM16.7363 20.3075C16.7363 19.8523 16.6368 19.4431 16.4313 19.0864L16.0733 19.2927C16.2377 19.578 16.3232 19.914 16.3232 20.3075H16.7363ZM16.432 19.0877C16.2273 18.7265 15.9373 18.4459 15.566 18.2484L15.3719 18.6131C15.6752 18.7745 15.9073 18.9998 16.0726 19.2914L16.432 19.0877ZM15.5683 18.2496C15.196 18.0454 14.7691 17.9467 14.2939 17.9467V18.3599C14.7109 18.3599 15.0673 18.4461 15.3696 18.6118L15.5683 18.2496ZM14.2939 17.9467H13.1189V18.3599H14.2939V17.9467ZM12.9123 18.1533V22.4617H13.3255V18.1533H12.9123ZM13.1189 22.6683H14.2939V22.2551H13.1189V22.6683ZM19.1815 23.09L19.3276 22.9439L19.1815 23.09ZM19.1815 17.5739L19.3277 17.7201L19.3329 17.7145L19.1815 17.5739ZM22.8616 17.5658L22.7098 17.7059L22.7154 17.712L22.7215 17.7176L22.8616 17.5658ZM22.8616 18.0554L22.7214 17.9034L22.7155 17.9093L22.8616 18.0554ZM19.818 18.1533V17.9467H19.6114V18.1533H19.818ZM19.818 19.9566H19.6114V20.1632H19.818V19.9566ZM22.576 20.0627L22.4242 20.2028L22.4298 20.2089L22.4359 20.2145L22.576 20.0627ZM22.576 20.5523L22.4358 20.4004L22.4299 20.4062L22.576 20.5523ZM19.818 20.6502V20.4436H19.6114V20.6502H19.818ZM19.7037 23.09L19.5631 22.9385L19.5577 22.9439L19.7037 23.09ZM19.4426 22.9895C19.392 22.9895 19.3581 22.9745 19.3276 22.9439L19.0354 23.2361C19.1463 23.347 19.2865 23.4027 19.4426 23.4027V22.9895ZM19.3276 22.9439C19.297 22.9134 19.282 22.8795 19.282 22.8289H18.8688C18.8688 22.985 18.9245 23.1252 19.0354 23.2361L19.3276 22.9439ZM19.282 22.8289V17.835H18.8688V22.8289H19.282ZM19.282 17.835C19.282 17.7844 19.297 17.7505 19.3276 17.72L19.0354 17.4279C18.9245 17.5387 18.8688 17.6789 18.8688 17.835H19.282ZM19.3329 17.7145C19.3648 17.6802 19.3971 17.6663 19.4426 17.6663V17.2531C19.2815 17.2531 19.1397 17.3154 19.0301 17.4334L19.3329 17.7145ZM19.4426 17.6663H22.6168V17.2531H19.4426V17.6663ZM22.6168 17.6663C22.6582 17.6663 22.6844 17.6784 22.7098 17.7059L23.0134 17.4256C22.9082 17.3117 22.7712 17.2531 22.6168 17.2531V17.6663ZM22.7215 17.7176C22.749 17.743 22.7611 17.7692 22.7611 17.8106H23.1743C23.1743 17.6561 23.1156 17.5191 23.0017 17.414L22.7215 17.7176ZM22.7611 17.8106C22.7611 17.852 22.749 17.8782 22.7215 17.9036L23.0017 18.2072C23.1156 18.102 23.1743 17.965 23.1743 17.8106H22.7611ZM22.7155 17.9093C22.6915 17.9333 22.6636 17.9467 22.6168 17.9467V18.3599C22.7658 18.3599 22.9011 18.308 23.0077 18.2014L22.7155 17.9093ZM22.6168 17.9467H19.818V18.3599H22.6168V17.9467ZM19.6114 18.1533V19.9566H20.0245V18.1533H19.6114ZM19.818 20.1632H22.3312V19.75H19.818V20.1632ZM22.3312 20.1632C22.3726 20.1632 22.3988 20.1753 22.4242 20.2028L22.7278 19.9226C22.6226 19.8086 22.4856 19.75 22.3312 19.75V20.1632ZM22.4359 20.2145C22.4634 20.2399 22.4755 20.2661 22.4755 20.3075H22.8887C22.8887 20.153 22.83 20.016 22.7161 19.9109L22.4359 20.2145ZM22.4755 20.3075C22.4755 20.3489 22.4634 20.3751 22.4359 20.4005L22.7161 20.7041C22.83 20.5989 22.8887 20.4619 22.8887 20.3075H22.4755ZM22.4299 20.4062C22.4059 20.4302 22.378 20.4436 22.3312 20.4436V20.8568C22.4802 20.8568 22.6155 20.8049 22.7221 20.6983L22.4299 20.4062ZM22.3312 20.4436H19.818V20.8568H22.3312V20.4436ZM19.6114 20.6502V22.8289H20.0245V20.6502H19.6114ZM19.6114 22.8289C19.6114 22.8744 19.5975 22.9067 19.5632 22.9386L19.8443 23.2414C19.9623 23.1318 20.0245 22.99 20.0245 22.8289H19.6114ZM19.5577 22.9439C19.5271 22.9745 19.4932 22.9895 19.4426 22.9895V23.4027C19.5987 23.4027 19.7389 23.347 19.8498 23.2361L19.5577 22.9439Z" fill="white" mask="url(#path-3-outside-1_5732_27454)"/>
<g filter="url(#filter0_d_5732_27454)">
<path d="M28.3578 10.7142H20.0946C18.8396 10.7142 17.8223 9.69686 17.8223 8.44187V0.178711L28.3578 10.7142Z" fill="url(#paint2_linear_5732_27454)"/>
</g>
</g>
<defs>
<filter id="filter0_d_5732_27454" x="15.4466" y="-2.30024" width="15.6996" height="15.6996" filterUnits="userSpaceOnUse" color-interpolation-filters="sRGB">
<feFlood flood-opacity="0" result="BackgroundImageFix"/>
<feColorMatrix in="SourceAlpha" type="matrix" values="0 0 0 0 0 0 0 0 0 0 0 0 0 0 0 0 0 0 127 0" result="hardAlpha"/>
<feOffset dx="0.206579" dy="0.103289"/>
<feGaussianBlur stdDeviation="1.29112"/>
<feColorMatrix type="matrix" values="0 0 0 0 0 0 0 0 0 0 0 0 0 0 0 0 0 0 0.33 0"/>
<feBlend mode="normal" in2="BackgroundImageFix" result="effect1_dropShadow_5732_27454"/>
<feBlend mode="normal" in="SourceGraphic" in2="effect1_dropShadow_5732_27454" result="shape"/>
</filter>
<linearGradient id="paint0_linear_5732_27454" x1="14.311" y1="0.178711" x2="14.311" y2="31.9919" gradientUnits="userSpaceOnUse">
<stop stop-color="#FF7979"/>
<stop offset="1" stop-color="#E85555"/>
</linearGradient>
<linearGradient id="paint1_linear_5732_27454" x1="14.311" y1="0.178711" x2="14.311" y2="31.9919" gradientUnits="userSpaceOnUse">
<stop stop-color="#FF7981"/>
<stop offset="1" stop-color="#E85567"/>
</linearGradient>
<linearGradient id="paint2_linear_5732_27454" x1="23.09" y1="0.178711" x2="23.09" y2="10.7142" gradientUnits="userSpaceOnUse">
<stop stop-color="#D03954"/>
<stop offset="1" stop-color="#C02A3C"/>
</linearGradient>
</defs>
</svg>
