<svg width="29" height="29" viewBox="0 0 29 29" fill="none" xmlns="http://www.w3.org/2000/svg">
<g opacity="0.5">
<path d="M11.7222 27H5C3.34314 27 2 25.6569 2 24V15.2083C2 14.433 2.30014 13.6879 2.8375 13.129L12.3375 3.249C13.5178 2.02144 15.4821 2.02143 16.6625 3.249L26.1625 13.129C26.6999 13.6879 27 14.433 27 15.2083V24C27 25.6569 25.6569 27 24 27H17.2778M11.7222 27V21.5673C11.7222 20.0331 12.9659 18.7895 14.5 18.7895V18.7895C16.0341 18.7895 17.2778 20.0331 17.2778 21.5673V27M11.7222 27H17.2778" stroke="#161617" stroke-width="3"/>
</g>
</svg>
