<?xml version="1.0" encoding="utf-8"?>
<!-- Generator: Adobe Illustrator 27.3.1, SVG Export Plug-In . SVG Version: 6.00 Build 0)  -->
<svg version="1.1" id="Layer_1" xmlns="http://www.w3.org/2000/svg" xmlns:xlink="http://www.w3.org/1999/xlink" x="0px" y="0px"
	 viewBox="0 0 29.5 32.2" style="enable-background:new 0 0 29.5 32.2;" xml:space="preserve">
<style type="text/css">
	.st0{opacity:0.5;fill:none;stroke:#161617;stroke-width:3;enable-background:new    ;}
	.st1{opacity:0.5;}
	.st2{fill:none;stroke:#161617;stroke-width:3;stroke-linecap:round;}
</style>
<g>
	<path class="st0" d="M27.5,22.6L27.5,22.6l-5-5c0,0,0,0,0,0c-0.3-0.3-0.8-0.5-1.3-0.5h-4.4c-1.6,0-2.4,1.9-1.3,3.1c0,0,0,0,0,0
		l3.7,3.7l-3.7,3.7c-1.1,1.1-0.3,3.1,1.3,3.1h4.4c0.5,0,0.9-0.2,1.3-0.5l5-5C28.2,24.5,28.2,23.3,27.5,22.6z"/>
	<g class="st1">
		<path class="st2" d="M12.8,25.2C9,25.2,6,25,3.8,22.7c-2.1-2.2-2.3-5.5-2.3-9.4c0-3.9,0.2-7.1,2.3-9.4C6,1.8,9,1.5,12.8,1.5
			s6.8,0.2,8.9,2.5c2.1,2.2,2.3,5.5,2.3,9.4"/>
	</g>
</g>
</svg>
