<svg width="17" height="24" viewBox="0 0 17 24" fill="none" xmlns="http://www.w3.org/2000/svg">
<g opacity="0.6">
<path d="M1 8.4C1 4.31941 4.34181 1 8.5 1C12.6582 1 16 4.31941 16 8.4C16 10.2681 15.1327 12.5554 13.8685 14.8568C12.6203 17.1291 11.0572 19.2883 9.81596 20.8671C9.12666 21.7439 7.87334 21.7439 7.18405 20.8671C5.94285 19.2883 4.37973 17.1291 3.1315 14.8568C1.86729 12.5554 1 10.2682 1 8.4Z" stroke="#161617" stroke-width="2"/>
<path d="M10.9545 9.12476L8.46802 11.9483C8.4388 11.9815 8.39933 12 8.35815 12H6.15571C6.01724 12 5.94793 11.8099 6.04584 11.6988L8.31261 9.12476C8.37338 9.05576 8.37338 8.94406 8.31261 8.87524L6.04599 6.30124C5.94809 6.19006 6.01755 6 6.15602 6H8.35846C8.39964 6 8.43927 6.01853 8.46833 6.05171L10.9545 8.87524C11.0152 8.94424 11.0152 9.05594 10.9545 9.12476Z" fill="#161617"/>
</g>
</svg>
