<svg width="28" height="29" viewBox="0 0 28 29" fill="none" xmlns="http://www.w3.org/2000/svg">
<g opacity="0.5">
<path d="M14 17.9297C15.933 17.9297 17.5 16.3627 17.5 14.4297C17.5 12.4967 15.933 10.9297 14 10.9297C12.067 10.9297 10.5 12.4967 10.5 14.4297C10.5 16.3627 12.067 17.9297 14 17.9297Z" stroke="#161617" stroke-width="3" stroke-miterlimit="10" stroke-linecap="round" stroke-linejoin="round"/>
<path d="M2.33398 15.4562V13.4029C2.33398 12.1895 3.32565 11.1862 4.55065 11.1862C6.66232 11.1862 7.52565 9.69287 6.46398 7.8612C5.85732 6.8112 6.21898 5.4462 7.28065 4.83953L9.29898 3.68453C10.2207 3.1362 11.4107 3.46287 11.959 4.38453L12.0873 4.6062C13.1373 6.43787 14.864 6.43787 15.9257 4.6062L16.054 4.38453C16.6023 3.46287 17.7923 3.1362 18.714 3.68453L20.7323 4.83953C21.794 5.4462 22.1557 6.8112 21.549 7.8612C20.4873 9.69287 21.3507 11.1862 23.4623 11.1862C24.6757 11.1862 25.679 12.1779 25.679 13.4029V15.4562C25.679 16.6695 24.6873 17.6729 23.4623 17.6729C21.3507 17.6729 20.4873 19.1662 21.549 20.9979C22.1557 22.0595 21.794 23.4129 20.7323 24.0195L18.714 25.1745C17.7923 25.7229 16.6023 25.3962 16.054 24.4745L15.9257 24.2529C14.8757 22.4212 13.149 22.4212 12.0873 24.2529L11.959 24.4745C11.4107 25.3962 10.2207 25.7229 9.29898 25.1745L7.28065 24.0195C6.21898 23.4129 5.85732 22.0479 6.46398 20.9979C7.52565 19.1662 6.66232 17.6729 4.55065 17.6729C3.32565 17.6729 2.33398 16.6695 2.33398 15.4562Z" stroke="#161617" stroke-width="3" stroke-miterlimit="10" stroke-linecap="round" stroke-linejoin="round"/>
</g>
</svg>
