<svg width="20" height="23" viewBox="0 0 20 23" fill="none" xmlns="http://www.w3.org/2000/svg">
<g opacity="0.6">
<path d="M17.5818 7.73636V4.45455C17.5818 2.54665 16.0352 1 14.1273 1H4.45454C2.54665 1 1 2.54665 1 4.45455V18.6182C1 20.5261 2.54665 22.0727 4.45455 22.0727H15.0794C16.4615 22.0727 17.5818 20.9524 17.5818 19.5703V19.5703" stroke="#161617" stroke-width="1.72727" stroke-linecap="round"/>
<path d="M5 5L13 5" stroke="#161617" stroke-width="2.76364" stroke-linecap="round"/>
<path d="M5.04688 9.42969H5.89585" stroke="#161617" stroke-width="2.07273" stroke-linecap="round"/>
<path d="M5.04688 13.2305H5.89585" stroke="#161617" stroke-width="2.07273" stroke-linecap="round"/>
<path d="M5.04688 17.0312H5.89585" stroke="#161617" stroke-width="2.07273" stroke-linecap="round"/>
<path d="M8.625 9.42969H9.47398" stroke="#161617" stroke-width="2.07273" stroke-linecap="round"/>
<path d="M8.625 13.2305H9.47398" stroke="#161617" stroke-width="2.07273" stroke-linecap="round"/>
<path d="M8.625 17.0312H9.47398" stroke="#161617" stroke-width="2.07273" stroke-linecap="round"/>
<path d="M12.2422 9.42969H13.0912" stroke="#161617" stroke-width="2.07273" stroke-linecap="round"/>
<path d="M12.2422 13.2305H13.0912" stroke="#161617" stroke-width="2.07273" stroke-linecap="round"/>
<path d="M12.2422 17.0312H13.0912" stroke="#161617" stroke-width="2.07273" stroke-linecap="round"/>
<path d="M19.5034 16.044C19.1641 16.3762 18.7166 16.5748 18.1608 16.654V17.4363C18.1608 17.4766 18.1446 17.5154 18.1139 17.5418C18.0832 17.5682 18.0363 17.5822 17.9912 17.5822H17.2965C17.2496 17.5822 17.2189 17.5682 17.1738 17.5418C17.1431 17.5154 17.1269 17.4751 17.1269 17.4363V16.654C16.8959 16.6276 16.6794 16.5872 16.4628 16.5221C16.2463 16.4553 16.0767 16.3901 15.9377 16.3234C15.7988 16.2566 15.6761 16.1914 15.5516 16.1107C15.4289 16.0316 15.3513 15.9788 15.3044 15.9384C15.2575 15.8981 15.2268 15.8717 15.2123 15.8593C15.151 15.7925 15.151 15.7398 15.1961 15.673L15.7212 15.0755C15.7519 15.0491 15.7826 15.0227 15.8439 15.0227C15.8908 15.0227 15.9359 15.0366 15.9666 15.063L15.9828 15.077C16.369 15.3688 16.784 15.5551 17.2315 15.6342C17.3542 15.6606 17.4932 15.6746 17.6177 15.6746C17.8956 15.6746 18.1428 15.6078 18.3575 15.4883C18.5723 15.3688 18.6805 15.1826 18.6805 14.9451C18.6805 14.8659 18.6498 14.7852 18.6029 14.706C18.556 14.6269 18.4947 14.5741 18.4333 14.5198C18.372 14.467 18.2637 14.4142 18.1247 14.3475C17.9858 14.2808 17.8775 14.2419 17.7855 14.2016C17.6935 14.1612 17.5545 14.1224 17.3687 14.0557C17.2297 14.0029 17.1215 13.9765 17.0457 13.9501C16.9699 13.9238 16.8598 13.8834 16.7227 13.8306C16.5837 13.7779 16.4755 13.7375 16.3997 13.6987C16.3239 13.6599 16.2138 13.6056 16.1074 13.5388C16.0009 13.4721 15.9071 13.4069 15.8295 13.3526C15.7519 13.2858 15.6905 13.2206 15.5985 13.1399C15.5209 13.0608 15.4596 12.9676 15.4126 12.8885C15.3657 12.8093 15.335 12.7022 15.3044 12.5967C15.2737 12.4911 15.2575 12.3716 15.2575 12.2521C15.2575 11.8408 15.4271 11.4822 15.7663 11.178C16.1056 10.8738 16.5368 10.6736 17.0782 10.5804V9.78262C17.0782 9.74226 17.0944 9.71588 17.1251 9.67707C17.1557 9.65069 17.2027 9.63672 17.2478 9.63672H17.9425C17.9894 9.63672 18.0345 9.65069 18.0652 9.67707C18.0959 9.70346 18.1121 9.74382 18.1121 9.78262V10.5385C18.3124 10.5525 18.4983 10.5913 18.6823 10.6441C18.8682 10.6968 19.0216 10.7496 19.1298 10.79C19.2381 10.8427 19.3608 10.8955 19.4528 10.9623C19.5611 11.029 19.6225 11.0678 19.6531 11.0942C19.6838 11.1206 19.7145 11.1345 19.7307 11.1609C19.7921 11.2137 19.7921 11.2665 19.7614 11.3332L19.3446 11.9836C19.3139 12.0239 19.2832 12.0503 19.2219 12.0503C19.1749 12.0643 19.1298 12.0503 19.0829 12.0239C19.0667 12.01 19.0522 11.9975 19.0053 11.9712C18.9584 11.9448 18.8971 11.9044 18.805 11.8516C18.713 11.7989 18.6047 11.7585 18.4965 11.7057C18.3882 11.6654 18.2655 11.6266 18.1103 11.5862C17.9569 11.5459 17.818 11.5334 17.6628 11.5334C17.3398 11.5334 17.0619 11.6002 16.8616 11.7197C16.6613 11.8392 16.5531 12.0115 16.5531 12.2102C16.5531 12.2893 16.5693 12.3561 16.6 12.4228C16.6306 12.4896 16.6776 12.5548 16.7534 12.6091C16.8309 12.6619 16.8923 12.7146 16.9536 12.755C17.015 12.7953 17.107 12.8341 17.246 12.8869C17.3687 12.9397 17.4769 12.98 17.5545 13.0064C17.6321 13.0328 17.7548 13.0732 17.91 13.126C18.0959 13.1787 18.233 13.2315 18.3268 13.2719C18.4207 13.3122 18.5578 13.351 18.713 13.4317C18.8826 13.4985 19.0053 13.5637 19.0992 13.618C19.1912 13.6708 19.2995 13.7499 19.4222 13.843C19.5449 13.9362 19.6387 14.0293 19.7 14.1209C20.1224 14.762 20.1363 15.4503 19.5034 16.044Z" fill="#161617"/>
</g>
</svg>
